<?xml version="1.0" encoding="UTF-8" standalone="no"?>
<!DOCTYPE svg PUBLIC "-//W3C//DTD SVG 1.1//EN" "http://www.w3.org/Graphics/SVG/1.1/DTD/svg11.dtd">
<svg width="100%" height="100%" viewBox="0 0 50 50" version="1.1" xmlns="http://www.w3.org/2000/svg" xmlns:xlink="http://www.w3.org/1999/xlink" xml:space="preserve" xmlns:serif="http://www.serif.com/" style="fill-rule:evenodd;clip-rule:evenodd;">
    <g id="Calque1">
        <g transform="matrix(1.4343,0,0,1.4343,-0.100272,-0.100308)">
            <path d="M14.134,11.711L15.539,10.306L21.257,16.024L21.328,16.095L21.399,16.024L27.117,10.306L28.523,11.711L22.804,17.429L22.733,17.5L22.804,17.571L28.523,23.289L27.117,24.694L21.399,18.976L21.328,18.905L21.257,18.976L15.539,24.694L14.134,23.289L19.852,17.571L19.923,17.5L19.852,17.429L14.134,11.711Z" style="fill-rule:nonzero;stroke:black;stroke-width:0.2px;"/>
        </g>
        <g transform="matrix(1.4343,0,0,1.4343,-0.100272,-0.100308)">
            <path d="M32.266,4.275L13.306,4.275C13.069,4.275 12.835,4.324 12.618,4.417C12.401,4.51 12.205,4.647 12.042,4.818L12.042,4.818L1.021,16.448L0.994,16.477L0.994,18.523L1.021,18.552L12.042,30.182L12.042,30.182C12.205,30.353 12.401,30.49 12.618,30.583C12.835,30.676 13.069,30.725 13.306,30.725L32.266,30.725C32.727,30.725 33.17,30.541 33.496,30.215C33.822,29.888 34.006,29.446 34.006,28.985L34.006,6.016C34.006,5.554 33.822,5.112 33.496,4.785C33.17,4.459 32.727,4.276 32.266,4.275L32.266,4.375L32.266,4.275ZM31.619,28.337L13.584,28.337L3.381,17.571L3.381,17.429L13.584,6.662L31.619,6.662L31.619,28.337Z" style="fill-rule:nonzero;stroke:black;stroke-width:0.2px;"/>
        </g>
    </g>
</svg>
